<svg width="73" height="86" fill="none" xmlns="http://www.w3.org/2000/svg"><path d="M72.058 20.849v-.422h-.035c-.21-5.202-3.726-10.37-10.597-14.324-14.096-8.137-36.944-8.137-50.951 0C3.462 10.181-.018 15.523 0 20.866V65.14c.035 5.342 3.585 10.685 10.633 14.745C17.698 83.96 26.925 86 36.135 86c9.227 0 18.419-2.039 25.449-6.116 7.012-4.078 10.492-9.42 10.474-14.746V20.85s0 .017 0 0ZM17.804 14.24l1.95-1.124c.493-.282 1.266-.282 1.776 0l2.407 1.388c.528-.316 1.073-.615 1.6-.931l-2.408-1.389c-.492-.281-.492-.738 0-1.02l1.95-1.124c.493-.281 1.284-.281 1.776 0l3.076 1.775.404-.123a29.889 29.889 0 0 1 11.002-1.248c3.058.229 5.8.95 8.313 2.004.984.404 1.898.86 2.724 1.335 2.18 1.266 3.85 2.742 5.15 4.412l.263.457c.3.615-.052 1.037-1.09 1.283-1.089.28-2.196.527-3.303.773-.774.158-1.319.123-1.793-.158-.123-.07-.228-.158-.352-.246-.738-.686-1.406-1.424-2.197-2.092a14.983 14.983 0 0 0-2.355-1.704 15.32 15.32 0 0 0-4.095-1.617c-2.39-.598-4.727-.457-7.082.088l-.088.017 5.958 3.445c.492.281.492.738 0 1.02l-1.951 1.124c-.492.281-1.283.281-1.775 0l-6.837-3.937c-.51.299-1.055.615-1.6.932l6.837 3.937c.492.28.492.738 0 1.019l-1.95 1.125c-.492.28-1.266.28-1.775 0l-6.24-3.603c-1.388 1.687-1.828 3.357-.263 5.097.668.738 1.529 1.388 2.53 1.968.88.51 1.846.949 2.883 1.353 1.16.422 2.39.809 3.585 1.248.194.07.352.14.492.229.475.28.545.597.264 1.037a20.378 20.378 0 0 1-1.353 1.95c-.405.58-1.16.791-2.25.58a39.45 39.45 0 0 1-3.216-.878c-1.934-.633-3.674-1.371-5.185-2.25-1.582-.914-2.917-1.968-3.99-3.164-2.513-2.847-2.46-5.747-.404-8.664.404-.58.967-1.09 1.459-1.635l-2.918-1.687c-.421-.264-.421-.72.07-1.002Zm-7.17 21.372c14.112 8.155 36.925 8.155 50.95 0 2.179-1.266 3.99-2.672 5.483-4.148v.615c.018 3.656-2.9 7.47-7.997 10.422-6.045 3.515-14.183 5.449-22.935 5.449-8.753 0-16.943-1.934-23.024-5.449-5.15-2.97-8.12-6.801-8.155-10.44v-.72a29.025 29.025 0 0 0 5.677 4.27Zm48.454 28.911c-6.046 3.515-14.183 5.448-22.936 5.448-8.752 0-16.942-1.933-23.023-5.448-5.15-2.97-8.12-6.801-8.155-10.44v-.527c1.546 1.53 3.392 2.97 5.66 4.27 7.064 4.078 16.291 6.117 25.5 6.117 9.228 0 18.42-2.039 25.45-6.116 2.179-1.265 3.99-2.671 5.483-4.148v.44c.035 3.655-2.882 7.451-7.979 10.404Zm0-11.002c-6.046 3.515-14.183 5.448-22.936 5.448-8.752 0-16.942-1.933-23.023-5.448-5.15-2.97-8.12-6.802-8.155-10.44v-.527c1.546 1.53 3.392 2.97 5.66 4.27 7.064 4.078 16.291 6.117 25.5 6.117 9.228 0 18.42-2.039 25.45-6.116 2.179-1.266 3.99-2.672 5.483-4.148v.44c.035 3.638-2.882 7.434-7.979 10.404Zm0 22.022c-6.046 3.515-14.183 5.448-22.936 5.448-8.752 0-16.942-1.933-23.023-5.448-5.15-2.97-8.12-6.802-8.155-10.44v-.527c1.546 1.529 3.392 2.97 5.66 4.27 7.064 4.078 16.291 6.117 25.5 6.117 9.228 0 18.42-2.039 25.45-6.116 2.179-1.266 3.99-2.672 5.483-4.148v.44c.035 3.637-2.882 7.451-7.979 10.404Z" fill="#54BD95"/></svg>