<svg xmlns="http://www.w3.org/2000/svg" xmlns:xlink="http://www.w3.org/1999/xlink"><symbol id="descript"><g fill="none"><path fill-rule="evenodd" clip-rule="evenodd" d="M17.071 4.417C18.946 5.325 20 6.555 20 7.84H0c0-1.284 1.054-2.514 2.929-3.422C4.804 3.51 7.348 3 10 3s5.196.51 7.071 1.417ZM2.93 31.583C1.054 30.675 0 29.445 0 28.16h20c0 1.284-1.054 2.514-2.929 3.422C15.196 32.49 12.652 33 10 33s-5.196-.51-7.071-1.417ZM23 20.419v3.871h-6v-3.87h6ZM6 11.71H0v3.872h6V11.71Zm5 0h12v3.872H11V11.71Zm1 8.71H0v3.871h12v-3.87Z" fill="#A6A6A6"/><path d="M41.054 29.288c-1.285 0-2.436-.33-3.452-.991-1.015-.66-1.818-1.62-2.407-2.877-.59-1.257-.885-2.784-.885-4.58 0-1.819.299-3.353.895-4.603.604-1.257 1.417-2.205 2.44-2.844 1.023-.647 2.162-.97 3.42-.97.958 0 1.747.164 2.365.49.618.32 1.108.707 1.47 1.162a7.1 7.1 0 0 1 .842 1.267h.16v-8.16h3.867V29h-3.793v-2.578h-.234c-.2.398-.487.82-.863 1.268-.377.44-.874.816-1.492 1.129-.618.312-1.395.469-2.333.469Zm1.076-3.164c.817 0 1.513-.22 2.088-.66.575-.448 1.012-1.07 1.31-1.865.299-.796.448-1.723.448-2.78 0-1.06-.15-1.979-.448-2.76-.29-.781-.724-1.389-1.3-1.822-.568-.433-1.267-.65-2.098-.65-.86 0-1.577.224-2.152.672-.575.447-1.009 1.065-1.3 1.853-.29.789-.436 1.69-.436 2.706 0 1.023.145 1.936.436 2.738.299.796.735 1.424 1.31 1.886.583.454 1.297.682 2.142.682Zm18.992 3.196c-1.64 0-3.057-.341-4.25-1.023-1.187-.689-2.1-1.662-2.738-2.92-.64-1.263-.96-2.751-.96-4.463 0-1.683.32-3.16.96-4.432.646-1.278 1.548-2.272 2.706-2.983 1.157-.717 2.517-1.076 4.08-1.076 1.008 0 1.96.164 2.855.49.902.32 1.697.817 2.386 1.492.696.675 1.243 1.534 1.641 2.578.398 1.037.597 2.273.597 3.707v1.183H54.986v-2.6h9.716c-.007-.738-.167-1.395-.48-1.97a3.486 3.486 0 0 0-1.31-1.375c-.554-.334-1.2-.5-1.939-.5-.788 0-1.48.191-2.077.575a3.964 3.964 0 0 0-1.396 1.491 4.292 4.292 0 0 0-.5 2.014v2.269c0 .952.173 1.768.522 2.45a3.724 3.724 0 0 0 1.459 1.556c.625.355 1.356.532 2.195.532.56 0 1.069-.078 1.523-.234a3.381 3.381 0 0 0 1.183-.714c.333-.312.586-.7.756-1.161l3.6.405a5.614 5.614 0 0 1-1.299 2.493c-.632.703-1.442 1.25-2.429 1.64-.987.384-2.116.576-3.388.576Zm23.472-12.358-3.515.383a2.823 2.823 0 0 0-.522-1.001 2.59 2.59 0 0 0-.98-.757c-.412-.191-.916-.287-1.513-.287-.803 0-1.477.174-2.024.522-.54.348-.806.799-.8 1.353-.006.476.168.863.523 1.16.362.3.959.544 1.79.736l2.79.597c1.549.333 2.7.863 3.453 1.587.76.724 1.143 1.673 1.15 2.844-.007 1.03-.309 1.94-.906 2.728-.589.781-1.41 1.392-2.46 1.832-1.052.44-2.259.66-3.623.66-2.002 0-3.615-.418-4.836-1.256-1.222-.846-1.95-2.021-2.184-3.527l3.76-.362c.17.739.533 1.296 1.087 1.673.554.376 1.275.564 2.163.564.916 0 1.651-.188 2.205-.564.561-.377.842-.842.842-1.396 0-.469-.181-.856-.544-1.161-.355-.306-.909-.54-1.662-.703L75.998 22c-1.57-.327-2.732-.877-3.485-1.652-.752-.78-1.125-1.768-1.118-2.961-.007-1.009.266-1.882.82-2.621.561-.746 1.339-1.321 2.333-1.726 1.002-.412 2.156-.618 3.463-.618 1.917 0 3.427.409 4.527 1.225 1.108.817 1.794 1.922 2.056 3.314Zm10.67 12.358c-1.634 0-3.036-.36-4.208-1.076-1.165-.718-2.063-1.709-2.696-2.973-.625-1.271-.937-2.734-.937-4.389 0-1.662.32-3.128.959-4.4.639-1.278 1.54-2.272 2.706-2.983 1.172-.717 2.556-1.076 4.155-1.076 1.328 0 2.503.245 3.526.735 1.03.483 1.85 1.169 2.461 2.056.611.881.959 1.911 1.044 3.09h-3.686a3.524 3.524 0 0 0-1.066-1.97c-.554-.534-1.296-.8-2.226-.8-.789 0-1.481.213-2.078.64-.596.418-1.061 1.022-1.395 1.81-.327.789-.49 1.733-.49 2.834 0 1.115.163 2.074.49 2.877.327.795.785 1.41 1.374 1.843.597.426 1.296.639 2.099.639.568 0 1.076-.107 1.523-.32.455-.22.835-.536 1.14-.948.306-.412.515-.913.629-1.502h3.686c-.093 1.158-.433 2.184-1.023 3.079-.589.888-1.392 1.584-2.408 2.088-1.015.497-2.208.746-3.58.746ZM105.44 29V12.636h3.739v2.728h.17c.299-.945.81-1.673 1.534-2.184.732-.519 1.566-.778 2.504-.778.213 0 .451.01.714.032.27.014.493.039.671.075v3.547c-.163-.057-.423-.106-.778-.149a7.14 7.14 0 0 0-1.012-.075c-.703 0-1.335.153-1.896.459a3.357 3.357 0 0 0-1.311 1.246c-.319.533-.479 1.147-.479 1.843V29h-3.856Zm11.894 0V12.636h3.857V29h-3.857Zm1.939-18.686a2.251 2.251 0 0 1-1.577-.607c-.44-.412-.66-.906-.66-1.481 0-.583.22-1.076.66-1.481a2.23 2.23 0 0 1 1.577-.618c.618 0 1.143.206 1.577.618.44.405.66.898.66 1.48 0 .576-.22 1.07-.66 1.482-.434.404-.959.607-1.577.607Zm5.883 24.822v-22.5h3.793v2.706h.224a7.11 7.11 0 0 1 .841-1.267c.362-.455.853-.842 1.47-1.162.618-.326 1.407-.49 2.365-.49 1.265 0 2.405.323 3.42.97 1.023.639 1.833 1.587 2.429 2.844.604 1.25.906 2.784.906 4.603 0 1.796-.295 3.323-.884 4.58-.59 1.258-1.393 2.216-2.408 2.877-1.016.66-2.166.99-3.452.99-.937 0-1.715-.156-2.333-.468-.618-.313-1.115-.689-1.491-1.13a7.275 7.275 0 0 1-.863-1.267h-.16v8.714h-3.857Zm3.782-14.318c0 1.058.149 1.985.448 2.78.305.796.742 1.418 1.31 1.865.575.44 1.271.66 2.088.66.852 0 1.566-.227 2.141-.681.576-.462 1.009-1.09 1.3-1.886.299-.802.448-1.715.448-2.738 0-1.015-.146-1.917-.437-2.706-.291-.788-.725-1.406-1.3-1.853-.575-.448-1.292-.672-2.152-.672-.824 0-1.523.217-2.099.65-.575.434-1.012 1.04-1.31 1.822-.291.781-.437 1.7-.437 2.76Zm23.139-8.182v2.983h-9.406v-2.983h9.406Zm-7.084-3.92h3.856v15.362c0 .519.079.916.235 1.193.163.27.376.455.639.554.263.1.554.15.874.15.241 0 .461-.018.66-.054.206-.035.362-.067.469-.096l.65 3.015c-.206.071-.501.15-.884.235a7.256 7.256 0 0 1-1.385.149c-.966.028-1.836-.117-2.61-.437a4.06 4.06 0 0 1-1.844-1.513c-.447-.682-.667-1.534-.66-2.557V8.716Z" fill="#A6A6A6"/></g></symbol><symbol id="grammarly"><g fill="none"><circle cx="15" cy="18" r="15" fill="#A6A6A6"/><path d="M21 18a7 7 0 1 1-2-4.899" stroke="#fff" stroke-width="2"/><path d="m17 20 4-2 2.5 3.5" stroke="#fff" stroke-width="2"/><path d="M49.098 35.477c-1.385 0-2.575-.188-3.569-.564-.994-.37-1.793-.867-2.397-1.492-.604-.625-1.023-1.317-1.257-2.077l3.473-.842c.156.32.383.636.682.948.298.32.7.583 1.204.789.511.213 1.154.32 1.928.32 1.094 0 2-.267 2.717-.8.717-.525 1.076-1.392 1.076-2.6v-3.1h-.192c-.2.398-.49.807-.874 1.226-.376.419-.877.77-1.502 1.055-.618.284-1.395.426-2.333.426-1.257 0-2.397-.295-3.42-.885-1.015-.596-1.825-1.484-2.429-2.663-.596-1.186-.895-2.67-.895-4.453 0-1.797.299-3.313.895-4.55.604-1.242 1.417-2.183 2.44-2.822 1.023-.647 2.162-.97 3.42-.97.958 0 1.747.164 2.365.49.625.32 1.122.707 1.491 1.162.37.447.65.87.842 1.267h.213v-2.706h3.803v16.63c0 1.4-.334 2.557-1.001 3.473-.668.917-1.58 1.602-2.738 2.056-1.158.455-2.472.682-3.942.682Zm.032-9.737c.817 0 1.513-.199 2.088-.596.575-.398 1.012-.97 1.31-1.716.299-.745.448-1.64.448-2.684 0-1.03-.15-1.932-.448-2.706-.29-.774-.724-1.375-1.3-1.8-.568-.434-1.267-.65-2.098-.65-.86 0-1.577.223-2.152.67-.575.448-1.009 1.062-1.3 1.844-.29.774-.436 1.654-.436 2.642 0 1.001.145 1.878.436 2.631.299.746.735 1.328 1.31 1.747.583.412 1.297.618 2.142.618ZM60.731 29V12.636h3.74v2.728h.17c.299-.945.81-1.673 1.534-2.184.732-.519 1.567-.778 2.504-.778.213 0 .451.01.714.032.27.014.493.039.67.075v3.547c-.162-.057-.422-.106-.777-.149a7.143 7.143 0 0 0-1.012-.075c-.703 0-1.335.153-1.896.459-.554.298-.99.713-1.31 1.246-.32.533-.48 1.147-.48 1.843V29h-3.856Zm16.31.33c-1.036 0-1.97-.184-2.8-.554a4.572 4.572 0 0 1-1.961-1.662c-.476-.731-.714-1.633-.714-2.706 0-.923.17-1.686.511-2.29a3.957 3.957 0 0 1 1.396-1.449 7.042 7.042 0 0 1 1.992-.82c.746-.192 1.516-.33 2.312-.416.959-.1 1.736-.188 2.333-.266.597-.085 1.03-.213 1.3-.384.277-.177.415-.45.415-.82V17.9c0-.802-.238-1.424-.713-1.864-.476-.44-1.162-.66-2.057-.66-.944 0-1.694.205-2.248.617-.546.412-.916.899-1.107 1.46l-3.601-.512c.284-.994.753-1.825 1.406-2.493.653-.674 1.452-1.178 2.397-1.512.945-.341 1.989-.512 3.132-.512.788 0 1.573.093 2.354.277.782.185 1.495.49 2.142.917.646.418 1.165.99 1.555 1.715.398.724.597 1.63.597 2.716V29h-3.708v-2.248h-.127c-.235.455-.565.88-.991 1.279-.42.39-.948.706-1.587.948-.633.234-1.375.351-2.227.351Zm1.002-2.834c.774 0 1.446-.152 2.014-.458a3.387 3.387 0 0 0 1.31-1.235 3.148 3.148 0 0 0 .469-1.673v-1.928c-.12.1-.327.191-.618.277-.284.085-.604.16-.959.223-.355.064-.706.121-1.055.17l-.905.129a6.735 6.735 0 0 0-1.545.383c-.454.178-.813.426-1.076.746-.263.313-.394.717-.394 1.215 0 .71.26 1.246.778 1.608.518.362 1.179.543 1.981.543ZM89.56 29V12.636h3.686v2.78h.192c.34-.937.905-1.668 1.693-2.194.789-.532 1.73-.799 2.823-.799 1.109 0 2.042.27 2.802.81.767.533 1.307 1.26 1.62 2.184h.17c.362-.91.973-1.634 1.833-2.173.866-.547 1.892-.82 3.078-.82 1.506 0 2.735.475 3.686 1.427.952.952 1.428 2.34 1.428 4.165V29h-3.867V18.613c0-1.016-.27-1.758-.81-2.227-.54-.475-1.2-.713-1.981-.713-.931 0-1.659.29-2.184.873-.519.575-.778 1.325-.778 2.248V29h-3.782V18.453c0-.845-.256-1.52-.767-2.024-.504-.504-1.165-.756-1.981-.756-.555 0-1.059.142-1.513.426a2.973 2.973 0 0 0-1.087 1.182c-.27.505-.405 1.094-.405 1.769V29H89.56Zm26.923 0V12.636h3.687v2.78h.191c.341-.937.906-1.668 1.694-2.194.789-.532 1.73-.799 2.823-.799 1.108 0 2.042.27 2.802.81.767.533 1.307 1.26 1.62 2.184h.17c.362-.91.973-1.634 1.832-2.173.867-.547 1.893-.82 3.079-.82 1.506 0 2.735.475 3.686 1.427.952.952 1.428 2.34 1.428 4.165V29h-3.867V18.613c0-1.016-.27-1.758-.81-2.227-.54-.475-1.2-.713-1.982-.713-.93 0-1.658.29-2.183.873-.519.575-.778 1.325-.778 2.248V29h-3.782V18.453c0-.845-.256-1.52-.767-2.024-.504-.504-1.165-.756-1.982-.756-.554 0-1.058.142-1.513.426a2.976 2.976 0 0 0-1.086 1.182c-.27.505-.405 1.094-.405 1.769V29h-3.857Zm31.633.33c-1.037 0-1.971-.184-2.802-.554a4.57 4.57 0 0 1-1.96-1.662c-.476-.731-.714-1.633-.714-2.706 0-.923.171-1.686.512-2.29a3.96 3.96 0 0 1 1.395-1.449 7.054 7.054 0 0 1 1.992-.82c.746-.192 1.517-.33 2.312-.416.959-.1 1.737-.188 2.333-.266.597-.085 1.03-.213 1.3-.384.277-.177.416-.45.416-.82V17.9c0-.802-.238-1.424-.714-1.864-.476-.44-1.161-.66-2.056-.66-.945 0-1.694.205-2.248.617-.547.412-.916.899-1.108 1.46l-3.601-.512c.284-.994.753-1.825 1.406-2.493a6.126 6.126 0 0 1 2.397-1.512c.945-.341 1.989-.512 3.132-.512.789 0 1.573.093 2.355.277a6.62 6.62 0 0 1 2.141.917c.646.418 1.165.99 1.555 1.715.398.724.597 1.63.597 2.716V29h-3.707v-2.248h-.128c-.235.455-.565.88-.991 1.279-.419.39-.948.706-1.587.948-.632.234-1.375.351-2.227.351Zm1.002-2.834c.774 0 1.445-.152 2.013-.458a3.385 3.385 0 0 0 1.31-1.235 3.144 3.144 0 0 0 .469-1.673v-1.928c-.121.1-.327.191-.618.277-.284.085-.603.16-.959.223-.355.064-.706.121-1.054.17l-.906.129a6.748 6.748 0 0 0-1.545.383c-.454.178-.813.426-1.076.746-.262.313-.394.717-.394 1.215 0 .71.26 1.246.778 1.608.518.362 1.179.543 1.982.543ZM160.634 29V12.636h3.739v2.728h.171c.298-.945.809-1.673 1.534-2.184.731-.519 1.566-.778 2.503-.778.213 0 .451.01.714.032.27.014.494.039.671.075v3.547c-.163-.057-.422-.106-.777-.149a7.153 7.153 0 0 0-1.013-.075c-.703 0-1.335.153-1.896.459a3.348 3.348 0 0 0-1.31 1.246c-.32.533-.48 1.147-.48 1.843V29h-3.856Zm15.751-21.818V29h-3.857V7.182h3.857Zm6.363 27.954a7.808 7.808 0 0 1-1.46-.128 5.413 5.413 0 0 1-1.055-.277l.895-3.004c.561.164 1.062.242 1.503.235.44-.008.827-.146 1.161-.416.341-.263.628-.703.863-1.32l.33-.885-5.934-16.705h4.091l3.771 12.358h.171l3.782-12.358h4.101l-6.552 18.346c-.305.866-.71 1.608-1.214 2.226a4.933 4.933 0 0 1-1.854 1.428c-.724.333-1.591.5-2.599.5Z" fill="#A6A6A6"/></g></symbol><symbol id="intercom"><g fill="none"><path d="M46.104 7.182V29h-3.952V7.182h3.952Zm22.21 0V29H64.8L54.518 14.139h-.181V29h-3.953V7.182h3.537l10.27 14.872h.192V7.182h3.931Zm3.348 3.313V7.182H89.07v3.313h-6.744V29h-3.92V10.495h-6.744ZM92.425 29V7.182h14.191v3.313H96.378v5.923h9.503v3.314h-9.503v5.955H106.7V29H92.425Zm18.223 0V7.182h8.182c1.676 0 3.082.291 4.219.873 1.143.583 2.006 1.4 2.588 2.45.59 1.045.885 2.263.885 3.655 0 1.399-.299 2.613-.895 3.643-.59 1.023-1.46 1.815-2.61 2.376-1.151.554-2.564.83-4.24.83h-5.828v-3.28h5.295c.98 0 1.783-.135 2.408-.405.625-.277 1.086-.678 1.385-1.204.305-.533.458-1.186.458-1.96s-.153-1.435-.458-1.982c-.306-.554-.771-.973-1.396-1.257-.625-.291-1.431-.437-2.418-.437H114.6V29h-3.952Zm11.271-9.886L127.321 29h-4.411l-5.305-9.886h4.314Zm26.916-4.57h-3.984a4.955 4.955 0 0 0-.629-1.737 4.658 4.658 0 0 0-1.14-1.3 4.748 4.748 0 0 0-1.555-.799 6.066 6.066 0 0 0-1.864-.277c-1.186 0-2.238.298-3.154.895-.916.59-1.633 1.456-2.152 2.6-.518 1.136-.777 2.524-.777 4.165 0 1.669.259 3.075.777 4.219.526 1.136 1.243 1.995 2.152 2.578.916.575 1.964.863 3.143.863.653 0 1.264-.085 1.832-.256a5.003 5.003 0 0 0 1.545-.778c.462-.34.849-.76 1.161-1.257.32-.497.54-1.065.661-1.704l3.984.021a8.579 8.579 0 0 1-.969 2.919 8.611 8.611 0 0 1-1.928 2.408 8.895 8.895 0 0 1-2.792 1.619c-1.065.384-2.248.575-3.547.575-1.918 0-3.63-.444-5.135-1.331-1.506-.888-2.692-2.17-3.558-3.846-.867-1.676-1.3-3.686-1.3-6.03 0-2.35.437-4.36 1.31-6.03.874-1.676 2.063-2.958 3.569-3.846 1.506-.888 3.21-1.331 5.114-1.331 1.214 0 2.343.17 3.388.51a8.68 8.68 0 0 1 2.791 1.503 7.996 7.996 0 0 1 2.013 2.408c.533.944.881 2.024 1.044 3.238Zm23.115 3.547c0 2.35-.44 4.364-1.321 6.04-.873 1.67-2.066 2.948-3.579 3.836-1.506.887-3.214 1.331-5.124 1.331-1.911 0-3.623-.444-5.135-1.331-1.506-.895-2.699-2.177-3.58-3.846-.873-1.676-1.31-3.686-1.31-6.03 0-2.35.437-4.36 1.31-6.03.881-1.676 2.074-2.958 3.58-3.846 1.512-.888 3.224-1.331 5.135-1.331 1.91 0 3.618.443 5.124 1.331 1.513.888 2.706 2.17 3.579 3.846.881 1.67 1.321 3.68 1.321 6.03Zm-3.973 0c0-1.655-.259-3.05-.778-4.187-.511-1.143-1.222-2.006-2.131-2.589-.909-.59-1.956-.884-3.142-.884s-2.234.295-3.143.884c-.909.583-1.623 1.446-2.141 2.59-.512 1.136-.768 2.531-.768 4.186 0 1.655.256 3.054.768 4.197.518 1.137 1.232 2 2.141 2.59.909.581 1.957.873 3.143.873 1.186 0 2.233-.292 3.142-.874.909-.59 1.62-1.452 2.131-2.589.519-1.143.778-2.542.778-4.197Zm7.71-10.91h4.837l6.477 15.81h.256l6.477-15.81h4.837V29h-3.793V14.01h-.202l-6.03 14.926h-2.834l-6.03-14.957h-.202V29h-3.793V7.182Z" fill="#A6A6A6"/><rect y="3" width="30" height="30" rx="3" fill="#A6A6A6"/><path fill="#fff" d="M4 10h2v12H4zM9 7h2v18H9zM14 7h2v18h-2zM19 7h2v18h-2z"/><path d="M5 27c2.833 2.264 11 5.433 21 0" stroke="#fff" stroke-width="2" stroke-linecap="round"/><path fill="#fff" d="M24 10h2v12h-2z"/></g></symbol><symbol id="main-logo"><g fill="none"><path d="M.587 39V2.636h13.92c2.628 0 4.812.415 6.552 1.243 1.752.817 3.06 1.936 3.924 3.356.876 1.42 1.314 3.03 1.314 4.83 0 1.48-.284 2.746-.852 3.8a7.168 7.168 0 0 1-2.29 2.538 9.694 9.694 0 0 1-3.215 1.403v.355c1.29.071 2.528.468 3.711 1.19 1.196.71 2.172 1.716 2.93 3.018.758 1.302 1.136 2.877 1.136 4.723 0 1.882-.455 3.575-1.367 5.078-.911 1.492-2.284 2.67-4.12 3.534-1.834.864-4.142 1.296-6.924 1.296H.586Zm6.587-5.504h7.084c2.392 0 4.114-.456 5.167-1.367 1.066-.924 1.598-2.107 1.598-3.552 0-1.077-.266-2.047-.799-2.912-.532-.875-1.29-1.562-2.272-2.06-.983-.508-2.155-.763-3.516-.763H7.174v10.654Zm0-15.394h6.516c1.137 0 2.16-.208 3.072-.622.912-.426 1.628-1.024 2.148-1.793.533-.781.8-1.705.8-2.77 0-1.409-.498-2.569-1.492-3.48-.982-.912-2.444-1.367-4.386-1.367H7.174v10.032ZM33.164 39V11.727h6.427V39h-6.427Zm3.231-31.143c-1.018 0-1.894-.338-2.627-1.013-.734-.686-1.101-1.509-1.101-2.468 0-.97.367-1.793 1.1-2.468.734-.686 1.61-1.03 2.628-1.03 1.03 0 1.906.344 2.628 1.03.734.675 1.101 1.498 1.101 2.468 0 .96-.367 1.782-1.1 2.468-.723.675-1.599 1.013-2.629 1.013Zm21.702 31.676c-2.722 0-5.06-.598-7.013-1.794-1.942-1.195-3.439-2.846-4.492-4.953-1.042-2.12-1.563-4.558-1.563-7.316 0-2.77.533-5.214 1.598-7.333 1.066-2.13 2.569-3.788 4.51-4.972 1.953-1.195 4.261-1.793 6.925-1.793 2.213 0 4.172.409 5.877 1.225 1.716.805 3.083 1.947 4.101 3.427 1.018 1.468 1.598 3.184 1.74 5.15h-6.143c-.248-1.315-.84-2.41-1.776-3.285-.923-.888-2.16-1.332-3.71-1.332-1.314 0-2.469.355-3.463 1.065-.994.698-1.77 1.705-2.326 3.019-.544 1.314-.817 2.888-.817 4.723 0 1.858.273 3.456.817 4.794.545 1.325 1.308 2.35 2.29 3.071.995.71 2.161 1.066 3.499 1.066.946 0 1.793-.178 2.539-.533a5.106 5.106 0 0 0 1.9-1.58c.508-.687.858-1.521 1.047-2.504h6.144c-.154 1.93-.723 3.64-1.705 5.132-.982 1.48-2.32 2.64-4.013 3.48-1.693.828-3.681 1.243-5.966 1.243Zm28.858 0c-2.723 0-5.06-.598-7.014-1.794-1.941-1.195-3.439-2.846-4.492-4.953-1.042-2.12-1.563-4.558-1.563-7.316 0-2.77.533-5.214 1.599-7.333 1.065-2.13 2.568-3.788 4.51-4.972 1.953-1.195 4.26-1.793 6.924-1.793 2.214 0 4.173.409 5.877 1.225 1.717.805 3.084 1.947 4.102 3.427 1.018 1.468 1.598 3.184 1.74 5.15h-6.144c-.248-1.315-.84-2.41-1.775-3.285-.923-.888-2.16-1.332-3.711-1.332-1.314 0-2.468.355-3.462 1.065-.995.698-1.77 1.705-2.326 3.019-.545 1.314-.817 2.888-.817 4.723 0 1.858.272 3.456.817 4.794.544 1.325 1.308 2.35 2.29 3.071.994.71 2.16 1.066 3.498 1.066.947 0 1.793-.178 2.54-.533a5.106 5.106 0 0 0 1.899-1.58c.509-.687.858-1.521 1.047-2.504h6.144c-.154 1.93-.722 3.64-1.705 5.132-.982 1.48-2.32 2.64-4.012 3.48-1.693.828-3.682 1.243-5.966 1.243Zm24.809.017c-1.728 0-3.285-.307-4.67-.923-1.373-.627-2.462-1.55-3.267-2.77-.793-1.219-1.19-2.722-1.19-4.51 0-1.539.285-2.811.853-3.817a6.59 6.59 0 0 1 2.326-2.415c.982-.604 2.089-1.06 3.32-1.367 1.243-.32 2.527-.55 3.853-.693 1.598-.165 2.894-.313 3.888-.444.995-.142 1.717-.355 2.167-.639.461-.296.692-.751.692-1.367V20.5c0-1.338-.396-2.374-1.189-3.108-.794-.734-1.936-1.1-3.427-1.1-1.575 0-2.823.343-3.747 1.03-.911.686-1.527 1.497-1.846 2.432l-6.002-.852c.474-1.658 1.255-3.043 2.344-4.155 1.089-1.125 2.421-1.965 3.995-2.522 1.574-.568 3.314-.852 5.22-.852 1.314 0 2.622.154 3.924.462 1.302.308 2.492.817 3.569 1.527 1.077.698 1.941 1.651 2.592 2.858.663 1.208.995 2.717.995 4.528V39h-6.179v-3.746h-.213c-.391.757-.941 1.467-1.652 2.13-.698.651-1.58 1.178-2.645 1.58-1.054.391-2.291.586-3.711.586Zm1.669-4.723c1.29 0 2.409-.254 3.356-.763.947-.52 1.675-1.208 2.184-2.06.52-.852.781-1.781.781-2.787v-3.214c-.201.166-.545.32-1.03.462-.473.142-1.006.266-1.598.372-.592.107-1.178.202-1.758.284-.58.083-1.083.154-1.509.213-.959.13-1.817.344-2.575.64-.757.296-1.355.71-1.793 1.243-.438.52-.657 1.195-.657 2.024 0 1.184.432 2.077 1.296 2.68.864.605 1.965.906 3.303.906Zm40.749-15.89-5.859.638a4.718 4.718 0 0 0-.87-1.669c-.403-.52-.947-.94-1.634-1.26-.686-.32-1.527-.48-2.521-.48-1.338 0-2.462.29-3.374.87-.899.58-1.343 1.332-1.331 2.255-.012.793.278 1.438.87 1.936.603.497 1.598.905 2.983 1.225l4.652.994c2.58.556 4.498 1.438 5.752 2.646 1.267 1.207 1.906 2.787 1.918 4.74-.012 1.717-.515 3.232-1.509 4.546-.983 1.302-2.35 2.32-4.102 3.054-1.752.734-3.764 1.1-6.037 1.1-3.338 0-6.025-.698-8.061-2.094-2.036-1.41-3.249-3.368-3.64-5.878l6.268-.603c.284 1.23.888 2.16 1.811 2.787.924.628 2.125.941 3.605.941 1.527 0 2.752-.313 3.675-.94.935-.628 1.403-1.403 1.403-2.327 0-.78-.302-1.426-.906-1.935-.592-.509-1.515-.9-2.77-1.172l-4.652-.977c-2.616-.544-4.551-1.461-5.806-2.752-1.255-1.302-1.876-2.947-1.864-4.936-.012-1.68.444-3.137 1.367-4.368.935-1.242 2.231-2.201 3.889-2.876 1.669-.687 3.592-1.03 5.77-1.03 3.196 0 5.712.68 7.546 2.042 1.847 1.361 2.989 3.202 3.427 5.522Z" fill="#54BD95"/></g></symbol><symbol id="notion"><g fill="none"><path d="M68.082 7.182V29h-3.516l-10.28-14.861h-.182V29h-3.952V7.182h3.537l10.27 14.872h.192V7.182h3.93ZM79.356 29.32c-1.598 0-2.983-.352-4.155-1.055-1.172-.703-2.081-1.687-2.727-2.951-.64-1.264-.96-2.742-.96-4.432 0-1.69.32-3.171.96-4.442.646-1.272 1.555-2.259 2.727-2.962 1.172-.703 2.557-1.055 4.155-1.055 1.598 0 2.983.352 4.154 1.055 1.172.703 2.078 1.69 2.717 2.962.646 1.27.97 2.752.97 4.442 0 1.69-.324 3.168-.97 4.432-.64 1.264-1.545 2.248-2.717 2.95-1.171.704-2.556 1.056-4.154 1.056Zm.021-3.09c.866 0 1.59-.238 2.173-.714.583-.483 1.016-1.129 1.3-1.939.291-.81.437-1.711.437-2.706 0-1.001-.146-1.906-.437-2.716-.284-.817-.717-1.467-1.3-1.95-.582-.483-1.307-.724-2.173-.724-.888 0-1.626.241-2.216.724-.582.483-1.02 1.133-1.31 1.95-.284.81-.427 1.715-.427 2.716 0 .995.143 1.897.427 2.706.29.81.728 1.456 1.31 1.94.59.475 1.328.713 2.216.713Zm19.264-13.594v2.983h-9.407v-2.983h9.407Zm-7.085-3.92h3.857v15.362c0 .519.078.916.234 1.193.164.27.377.455.64.554.262.1.554.15.873.15.242 0 .462-.018.66-.054.207-.035.363-.067.47-.096l.65 3.015c-.207.071-.501.15-.885.235a7.241 7.241 0 0 1-1.385.149c-.966.028-1.836-.117-2.61-.437a4.06 4.06 0 0 1-1.843-1.513c-.448-.682-.668-1.534-.66-2.557V8.716ZM101.867 29V12.636h3.857V29h-3.857Zm1.939-18.686a2.247 2.247 0 0 1-1.576-.607c-.441-.412-.661-.906-.661-1.481 0-.583.22-1.076.661-1.481.44-.412.965-.618 1.576-.618.618 0 1.144.206 1.577.618.44.405.66.898.66 1.48 0 .576-.22 1.07-.66 1.482-.433.404-.959.607-1.577.607Zm13.021 19.006c-1.598 0-2.983-.352-4.154-1.055-1.172-.703-2.081-1.687-2.728-2.951-.639-1.264-.959-2.742-.959-4.432 0-1.69.32-3.171.959-4.442.647-1.272 1.556-2.259 2.728-2.962 1.171-.703 2.556-1.055 4.154-1.055 1.598 0 2.983.352 4.155 1.055 1.172.703 2.078 1.69 2.717 2.962.646 1.27.969 2.752.969 4.442 0 1.69-.323 3.168-.969 4.432-.639 1.264-1.545 2.248-2.717 2.95-1.172.704-2.557 1.056-4.155 1.056Zm.022-3.09c.866 0 1.591-.238 2.173-.714.582-.483 1.016-1.129 1.3-1.939.291-.81.436-1.711.436-2.706 0-1.001-.145-1.906-.436-2.716-.284-.817-.718-1.467-1.3-1.95-.582-.483-1.307-.724-2.173-.724-.888 0-1.627.241-2.216.724-.583.483-1.019 1.133-1.311 1.95-.284.81-.426 1.715-.426 2.716 0 .995.142 1.897.426 2.706.292.81.728 1.456 1.311 1.94.589.475 1.328.713 2.216.713Zm14.949-6.818V29h-3.856V12.636h3.686v2.78h.191a4.68 4.68 0 0 1 1.801-2.183c.831-.54 1.857-.81 3.079-.81 1.129 0 2.113.242 2.951.725.845.483 1.498 1.182 1.96 2.098.469.917.699 2.028.692 3.335V29h-3.856v-9.822c0-1.094-.284-1.95-.852-2.568-.562-.618-1.339-.927-2.334-.927-.674 0-1.274.15-1.8.448a3.103 3.103 0 0 0-1.225 1.267c-.291.554-.437 1.226-.437 2.014ZM28.388 14.454V29h-2.344l-6.854-9.908h-.12V29h-2.635V14.454h2.358l6.846 9.915h.128v-9.915h2.62Z" fill="#A6A6A6"/><path stroke="#A6A6A6" stroke-width="2" d="M9 9h28v26H9zM2.661 2l5.715 5h26.963l-5.715-5H2.661Z"/><path d="M8 8 0 1v28l8 7V8Z" fill="#A6A6A6"/></g></symbol><symbol id="unsplash"><g fill="none"><path d="M60.2 9.182h3.953v14.254c0 1.563-.37 2.937-1.108 4.123-.732 1.186-1.761 2.113-3.09 2.78-1.328.661-2.88.991-4.655.991-1.783 0-3.338-.33-4.666-.99-1.328-.668-2.358-1.595-3.09-2.781-.731-1.186-1.097-2.56-1.097-4.123V9.182h3.952v13.924c0 .909.2 1.719.597 2.429.405.71.973 1.268 1.704 1.672.732.398 1.598.597 2.6.597 1.001 0 1.868-.199 2.6-.597a4.248 4.248 0 0 0 1.704-1.672c.398-.71.596-1.52.596-2.43V9.183Zm11.935 12.23V31h-3.857V14.636h3.686v2.78h.192a4.677 4.677 0 0 1 1.8-2.183c.832-.54 1.858-.81 3.08-.81 1.129 0 2.112.242 2.95.725.846.483 1.5 1.182 1.96 2.098.47.917.7 2.028.693 3.335V31h-3.856v-9.822c0-1.094-.284-1.95-.853-2.568-.56-.618-1.338-.927-2.333-.927-.674 0-1.275.15-1.8.448a3.102 3.102 0 0 0-1.225 1.267c-.291.554-.437 1.226-.437 2.014Zm27.358-2.45-3.516.383a2.826 2.826 0 0 0-.522-1.001 2.59 2.59 0 0 0-.98-.757c-.412-.191-.916-.287-1.513-.287-.802 0-1.477.174-2.024.522-.54.348-.806.799-.799 1.353-.007.476.167.863.522 1.16.362.3.959.544 1.79.736l2.791.597c1.548.333 2.7.863 3.452 1.587.76.724 1.143 1.673 1.15 2.844-.007 1.03-.308 1.94-.905 2.728-.59.781-1.41 1.392-2.461 1.832-1.051.44-2.258.66-3.622.66-2.003 0-3.615-.418-4.837-1.256-1.221-.846-1.95-2.021-2.184-3.527l3.76-.362c.171.739.534 1.296 1.088 1.673.553.376 1.274.564 2.162.564.916 0 1.651-.188 2.205-.564.562-.377.842-.842.842-1.396 0-.469-.181-.856-.543-1.161-.355-.306-.91-.54-1.662-.703L90.896 24c-1.57-.327-2.731-.877-3.484-1.652-.753-.78-1.126-1.768-1.119-2.961-.007-1.009.267-1.882.82-2.621.562-.746 1.34-1.321 2.334-1.726 1.001-.412 2.155-.618 3.462-.618 1.918 0 3.427.409 4.528 1.225 1.108.817 1.793 1.922 2.056 3.314Zm3.532 18.174v-22.5h3.792v2.706h.224a7.11 7.11 0 0 1 .841-1.267c.363-.455.853-.842 1.471-1.162.618-.326 1.406-.49 2.365-.49 1.264 0 2.404.323 3.419.97 1.023.639 1.833 1.587 2.429 2.844.604 1.25.906 2.784.906 4.603 0 1.796-.295 3.323-.884 4.58-.59 1.258-1.392 2.216-2.408 2.877-1.016.66-2.166.99-3.452.99-.937 0-1.715-.156-2.333-.468-.618-.313-1.115-.689-1.491-1.13a7.275 7.275 0 0 1-.863-1.267h-.16v8.714h-3.856Zm3.781-14.318c0 1.058.15 1.985.448 2.78.305.796.742 1.418 1.31 1.865.576.44 1.272.66 2.088.66.853 0 1.566-.227 2.142-.681.575-.462 1.008-1.09 1.299-1.886.299-.802.448-1.715.448-2.738 0-1.015-.146-1.917-.437-2.706-.291-.788-.724-1.406-1.3-1.853-.575-.448-1.292-.672-2.152-.672-.824 0-1.523.217-2.098.65-.576.434-1.012 1.04-1.311 1.822-.291.781-.437 1.7-.437 2.76Zm18.825-13.636V31h-3.856V9.182h3.856Zm8.675 22.148c-1.037 0-1.971-.184-2.802-.554a4.565 4.565 0 0 1-1.96-1.662c-.476-.731-.714-1.633-.714-2.706 0-.923.17-1.686.511-2.29a3.955 3.955 0 0 1 1.396-1.449 7.03 7.03 0 0 1 1.992-.82c.746-.192 1.516-.33 2.312-.416.958-.1 1.736-.188 2.333-.266.596-.085 1.03-.213 1.299-.384.277-.177.416-.45.416-.82V19.9c0-.802-.238-1.424-.714-1.864-.476-.44-1.161-.66-2.056-.66-.945 0-1.694.205-2.248.617-.547.412-.916.899-1.108 1.46l-3.601-.512c.284-.994.753-1.825 1.407-2.493.653-.674 1.452-1.178 2.397-1.512.944-.341 1.988-.512 3.132-.512.788 0 1.573.093 2.354.277.781.185 1.495.49 2.142.917.646.418 1.164.99 1.555 1.715.398.724.596 1.63.596 2.716V31h-3.707v-2.248h-.128c-.234.455-.564.88-.991 1.279-.419.39-.948.706-1.587.948-.632.234-1.374.351-2.226.351Zm1.001-2.834c.774 0 1.445-.152 2.013-.458a3.388 3.388 0 0 0 1.311-1.235 3.153 3.153 0 0 0 .469-1.673v-1.928c-.121.1-.327.191-.618.277-.284.085-.604.16-.959.223-.355.064-.707.121-1.055.17l-.905.129a6.722 6.722 0 0 0-1.545.383c-.455.178-.813.426-1.076.746-.263.313-.394.717-.394 1.215 0 .71.259 1.246.777 1.608.519.362 1.179.543 1.982.543Zm24.45-9.534-3.516.383a2.81 2.81 0 0 0-.522-1.001 2.594 2.594 0 0 0-.98-.757c-.412-.191-.916-.287-1.513-.287-.803 0-1.477.174-2.024.522-.54.348-.806.799-.799 1.353-.007.476.167.863.522 1.16.362.3.959.544 1.79.736l2.791.597c1.548.333 2.699.863 3.452 1.587.76.724 1.143 1.673 1.15 2.844-.007 1.03-.309 1.94-.905 2.728-.59.781-1.41 1.392-2.461 1.832-1.051.44-2.259.66-3.623.66-2.002 0-3.615-.418-4.836-1.256-1.222-.846-1.95-2.021-2.184-3.527l3.761-.362c.17.739.532 1.296 1.086 1.673.554.376 1.275.564 2.163.564.916 0 1.651-.188 2.205-.564.561-.377.842-.842.842-1.396 0-.469-.181-.856-.544-1.161-.355-.306-.909-.54-1.662-.703L151.159 24c-1.569-.327-2.731-.877-3.483-1.652-.753-.78-1.126-1.768-1.119-2.961-.007-1.009.266-1.882.82-2.621.561-.746 1.339-1.321 2.333-1.726 1.002-.412 2.156-.618 3.463-.618 1.917 0 3.427.409 4.527 1.225 1.108.817 1.794 1.922 2.057 3.314Zm7.388 2.45V31h-3.857V9.182h3.771v8.235h.192c.384-.923.977-1.651 1.779-2.184.81-.54 1.84-.81 3.09-.81 1.136 0 2.127.238 2.972.714.845.476 1.499 1.172 1.96 2.088.469.916.704 2.035.704 3.356V31h-3.857v-9.822c0-1.101-.284-1.957-.852-2.568-.561-.618-1.35-.927-2.365-.927-.682 0-1.293.15-1.833.448a3.14 3.14 0 0 0-1.257 1.267c-.298.554-.447 1.226-.447 2.014ZM11 0h12v9H11zM0 23h34v9H0z" fill="#A6A6A6"/><path fill="#A6A6A6" d="M24 14h10v18H24zM0 14h10v18H0z"/></g></symbol></svg>